<?xml version="1.0" encoding="UTF-8"?>
<!-- Created with Inkscape (http://www.inkscape.org/) -->
<svg width="677.33" height="328" version="1.1" viewBox="0 0 677.33 328" xmlns="http://www.w3.org/2000/svg">
 <defs>
  <clipPath id="clipPath568">
   <path d="m0 0h5080v2460h-5080zm578.67 353.8v-8.817l-90.074-14.488v37.793z" clip-rule="evenodd"/>
  </clipPath>
  <clipPath id="clipPath582">
   <path d="m0 0h5080v2460h-5080zm577.41 807.96 1.891-8.192-83.145-37.164-9.449 36.536z" clip-rule="evenodd"/>
  </clipPath>
  <clipPath id="clipPath596">
   <path d="m0 0h5080v2460h-5080zm576.15 1205.4 3.778-7.56-73.696-53.54-17.007 34.01z" clip-rule="evenodd"/>
  </clipPath>
  <clipPath id="clipPath610">
   <path d="m0 0h5080v2460h-5080zm3299.8 325.46v-8.82l-90.08-14.489v37.797z" clip-rule="evenodd"/>
  </clipPath>
  <clipPath id="clipPath624">
   <path d="m0 0h5080v2460h-5080zm3151.2 1829 8.19-3.15-18.27-89.44-35.9 13.22z" clip-rule="evenodd"/>
  </clipPath>
 </defs>
 <g transform="matrix(1.3333 0 0 -1.3333 0 328)">
  <g transform="scale(.1)">
   <g fill="none" stroke="#000" stroke-miterlimit="10" stroke-width="4.7242">
    <path d="m7.3477 859.62h283.46v311.8h-283.46z"/>
    <path d="m7.3477 547.82h283.46v311.8h-283.46z"/>
    <path d="m7.3477 236.02h283.46v311.8h-283.46z"/>
    <path d="m574.26 236.02h283.46v311.8h-283.46z"/>
    <path d="m857.72 236.02h283.45v311.8h-283.45z"/>
    <path d="m1141.2 236.02h283.46v311.8h-283.46z"/>
    <path d="m574.26 661.2h283.46v311.8h-283.46z"/>
    <path d="m857.72 661.2h283.45v311.8h-283.45z"/>
    <path d="m1141.2 661.2h283.46v311.8h-283.46z"/>
    <path d="m1424.6 661.2h283.45v311.8h-283.45z"/>
    <path d="m1708.1 661.2h283.46v311.8h-283.46z"/>
    <path d="m574.26 1058h283.46v311.8h-283.46z"/>
    <path d="m857.72 1058h283.45v311.8h-283.45z"/>
    <path d="m2558.4 491.12h283.45v311.8h-283.45z"/>
    <path d="m2558.4 179.32h283.45v311.8h-283.45z"/>
    <path d="m3040.3 2135.2h283.46v311.8h-283.46z"/>
    <path d="m3040.3 1823.4h283.46v311.8h-283.46z"/>
    <path d="m3323.8 2135.2h283.45v311.8h-283.45z"/>
    <path d="m3323.8 1823.4h283.45v311.8h-283.45z"/>
    <path d="m3607.2 2135.2h283.46v311.8h-283.46z"/>
    <path d="m3607.2 1823.4h283.46v311.8h-283.46z"/>
    <path d="m3890.7 2135.2h283.45v311.8h-283.45z"/>
    <path d="m3890.7 1823.4h283.45v311.8h-283.45z"/>
    <path d="m4174.1 2135.2h283.46v311.8h-283.46z"/>
    <path d="m4174.1 1823.4h283.46v311.8h-283.46z"/>
    <path d="m3295.4 179.32h283.46v311.8h-283.46z"/>
    <path d="m3578.9 179.32h283.45v311.8h-283.45z"/>
    <path d="m3862.3 179.32h283.46v311.8h-283.46z"/>
    <path d="m3295.4 491.12h283.46v311.8h-283.46z"/>
    <path d="m3578.9 491.12h283.45v311.8h-283.45z"/>
    <path d="m3862.3 491.12h283.46v311.8h-283.46z"/>
    <path d="m3295.4 802.93h283.46v311.8h-283.46z"/>
    <path d="m3578.9 802.93h283.45v311.8h-283.45z"/>
    <path d="m3862.3 802.93h283.46v311.8h-283.46z"/>
    <path d="m3295.4 1114.7h283.46v311.8h-283.46z"/>
    <path d="m3578.9 1114.7h283.45v311.8h-283.45z"/>
    <path d="m3862.3 1114.7h283.46v311.8h-283.46z"/>
    <path d="m3295.4 1426.5h283.46v311.8h-283.46z"/>
    <path d="m3578.9 1426.5h283.45v311.8h-283.45z"/>
    <path d="m3862.3 1426.5h283.46v311.8h-283.46z"/>
   </g>
   <g clip-path="url(#clipPath568)">
    <path d="m149.07 349.4h425.18" fill="none" stroke="#000" stroke-miterlimit="10" stroke-width="4.7242"/>
   </g>
   <path d="m488.59 330.5 75.586 18.898-75.586 18.895z" fill-rule="evenodd"/>
   <path d="m488.59 330.5 75.586 18.898-75.586 18.895z" fill="none" stroke="#000" stroke-miterlimit="10" stroke-width="4.7242"/>
   <g clip-path="url(#clipPath582)">
    <path d="m149.07 689.54 425.18 113.38" fill="none" stroke="#000" stroke-miterlimit="10" stroke-width="4.7242"/>
   </g>
   <path d="m496.15 762.61 68.028 37.797-77.477-1.261z" fill-rule="evenodd"/>
   <path d="m496.15 762.61 68.028 37.797-77.477-1.261z" fill="none" stroke="#000" stroke-miterlimit="10" stroke-width="4.7242"/>
   <g clip-path="url(#clipPath596)">
    <path d="m177.42 1001.3 396.84 198.42" fill="none" stroke="#000" stroke-miterlimit="10" stroke-width="4.7242"/>
   </g>
   <path d="m506.23 1144.3 59.211 51.02-76.218-17.01z" fill-rule="evenodd"/>
   <path d="m506.23 1144.3 59.211 51.02-76.218-17.01z" fill="none" stroke="#000" stroke-miterlimit="10" stroke-width="4.7242"/>
   <g clip-path="url(#clipPath610)">
    <path d="m2700.2 321.05h595.26" fill="none" stroke="#000" stroke-miterlimit="10" stroke-width="4.7242"/>
   </g>
   <path d="m3209.8 302.15 75.59 18.899-75.59 18.898z" fill-rule="evenodd"/>
   <path d="m3209.8 302.15 75.59 18.899-75.59 18.898z" fill="none" stroke="#000" stroke-miterlimit="10" stroke-width="4.7242"/>
   <g clip-path="url(#clipPath624)">
    <path d="m2700.2 632.85 453.53 1190.5" fill="none" stroke="#000" stroke-miterlimit="10" stroke-width="4.7242"/>
   </g>
   <path d="m3141.1 1736.4 8.82 77.47-44.72-64.25z" fill-rule="evenodd"/>
   <path d="m3141.1 1736.4 8.82 77.47-44.72-64.25z" fill="none" stroke="#000" stroke-miterlimit="10" stroke-width="4.7242"/>
   <g transform="scale(10)">
    <text transform="matrix(1 0 0 -1 6.4039 3.7598)" fill="#000000" font-family="'Courier New'" font-size="17.999px" xml:space="preserve"><tspan x="0" y="0">z</tspan><tspan x="144.562 155.36163 166.16129 176.96092" y="-25.5109">z[0]</tspan><tspan x="201.25301 212.05264 222.85228 233.65192" y="-70.863602">z[1]</tspan><tspan x="116.2163 127.01594 137.81558 148.61522" y="-110.5472">z[2]</tspan><tspan x="419.51331 430.31293 441.11258 451.91223" y="-53.856201">w[1]</tspan><tspan x="453.52811 464.32773 475.12738 485.92703" y="-206.9222">w[2]</tspan><tspan x="255.1091" y="2.8348">w</tspan></text>
   </g>
  </g>
 </g>
</svg>
