<?xml version="1.0" encoding="UTF-8"?>
<!-- Created with Inkscape (http://www.inkscape.org/) -->
<svg width="724" height="312" version="1.1" viewBox="0 0 724 312" xmlns="http://www.w3.org/2000/svg">
 <defs>
  <clipPath id="clipPath914">
   <path d="m0 0h5430v2340h-5430zm3831.4 2080.8 8.19 0.63 22.04-88.19-37.79-3.15z" clip-rule="evenodd"/>
  </clipPath>
  <clipPath id="clipPath928">
   <path d="m0 0h5430v2340h-5430zm2158.4 2073.8 1.89 8.19 90.71-6.93-8.82-36.54z" clip-rule="evenodd"/>
  </clipPath>
  <clipPath id="clipPath942">
   <path d="m0 0h5430v2340h-5430zm2957.7 2111.6 5.67-6.93-59.85-68.66-24.56 28.98z" clip-rule="evenodd"/>
  </clipPath>
  <clipPath id="clipPath956">
   <path d="m0 0h5430v2340h-5430zm3808.1 1658.1 5.67-6.93-59.84-69.29-23.94 28.98z" clip-rule="evenodd"/>
  </clipPath>
  <clipPath id="clipPath970">
   <path d="m0 0h5430v2340h-5430zm3886.8 1681.4 6.93 4.41 62.36-66.77-31.49-20.79z" clip-rule="evenodd"/>
  </clipPath>
  <clipPath id="clipPath984">
   <path d="m0 0h5430v2340h-5430zm4092.2 1260.6 4.41-6.93-69.29-59.21-19.53 32.75z" clip-rule="evenodd"/>
  </clipPath>
  <clipPath id="clipPath998">
   <path d="m0 0h5430v2340h-5430zm1363.4 2105.3 6.3 6.3 74.33-53.54-27.09-27.08z" clip-rule="evenodd"/>
  </clipPath>
  <clipPath id="clipPath1012">
   <path d="m0 0h5430v2340h-5430zm1308 2080.2 8.19 1.89 31.49-85.67-37.16-6.93z" clip-rule="evenodd"/>
  </clipPath>
  <clipPath id="clipPath1026">
   <path d="m0 0h5430v2340h-5430zm1364.1 2131.2 3.15 8.19 89.45-16.38-12.6-35.91z" clip-rule="evenodd"/>
  </clipPath>
  <clipPath id="clipPath1040">
   <path d="m0 0h5430v2340h-5430zm3779.8 2111 5.04-6.3-63.62-64.88-22.68 30.24z" clip-rule="evenodd"/>
  </clipPath>
  <clipPath id="clipPath1054">
   <path d="m0 0h5430v2340h-5430zm3461.6 860.03 7.56 3.778 53.54-73.696-34.02-17.008z" clip-rule="evenodd"/>
  </clipPath>
  <clipPath id="clipPath1068">
   <path d="m0 0h5430v2340h-5430zm3411.3 892.16 5.04-6.301-61.1-67.398-23.31 29.606z" clip-rule="evenodd"/>
  </clipPath>
  <clipPath id="clipPath1082">
   <path d="m0 0h5430v2340h-5430zm3384.2 1260.6 3.78-7.56-71.18-56.06-18.89 32.75z" clip-rule="evenodd"/>
  </clipPath>
  <clipPath id="clipPath1096">
   <path d="m0 0h5430v2340h-5430zm4170.3 1257.5 8.18 3.15 47.88-77.48-34.65-14.49z" clip-rule="evenodd"/>
  </clipPath>
  <clipPath id="clipPath1110">
   <path d="m0 0h5430v2340h-5430zm3489.4 1255 6.3 6.3 71.81-56.69-27.72-25.2z" clip-rule="evenodd"/>
  </clipPath>
 </defs>
 <g transform="matrix(1.3333 0 0 -1.3333 0 312)">
  <g transform="scale(.1)">
   <g fill="none" stroke="#000" stroke-miterlimit="10" stroke-width="4.7242">
    <path d="m2623.9 177.85c0-35.133-28.49-63.618-63.62-63.618s-63.62 28.485-63.62 63.618c0 35.132 28.49 63.621 63.62 63.621s63.62-28.489 63.62-63.621z"/>
    <path d="m4353 177.85c0-35.133-28.49-63.618-63.62-63.618-35.14 0-63.63 28.485-63.63 63.618 0 35.132 28.49 63.621 63.63 63.621 35.13 0 63.62-28.489 63.62-63.621z"/>
    <path d="m3899.4 177.85c0-35.133-28.49-63.618-63.62-63.618s-63.62 28.485-63.62 63.618c0 35.132 28.49 63.621 63.62 63.621s63.62-28.489 63.62-63.621z"/>
    <path d="m3474.2 177.85c0-35.133-28.49-63.618-63.62-63.618-35.14 0-63.62 28.485-63.62 63.618 0 35.132 28.48 63.621 63.62 63.621 35.13 0 63.62-28.489 63.62-63.621z"/>
    <path d="m3049.1 177.85c0-35.133-28.48-63.618-63.61-63.618-35.14 0-63.63 28.485-63.63 63.618 0 35.132 28.49 63.621 63.63 63.621 35.13 0 63.61-28.489 63.61-63.621z"/>
    <path d="m1773.5 177.85c0-35.133-28.49-63.618-63.63-63.618-35.13 0-63.61 28.485-63.61 63.618 0 35.132 28.48 63.621 63.61 63.621 35.14 0 63.63-28.489 63.63-63.621z"/>
    <path d="m1376.7 177.85c0-35.133-28.49-63.618-63.62-63.618s-63.62 28.485-63.62 63.618c0 35.132 28.49 63.621 63.62 63.621s63.62-28.489 63.62-63.621z"/>
    <path d="m2198.7 177.85c0-35.133-28.49-63.618-63.62-63.618s-63.62 28.485-63.62 63.618c0 35.132 28.49 63.621 63.62 63.621s63.62-28.489 63.62-63.621z"/>
    <path d="m3899.4 2133.7c0-35.14-28.49-63.62-63.62-63.62s-63.62 28.48-63.62 63.62c0 35.13 28.49 63.62 63.62 63.62s63.62-28.49 63.62-63.62z"/>
    <path d="m3049.1 2133.7c0-35.14-28.48-63.62-63.61-63.62-35.14 0-63.63 28.48-63.63 63.62 0 35.13 28.49 63.62 63.63 63.62 35.13 0 63.61-28.49 63.61-63.62z"/>
    <path d="m1376.7 2133.7c0-35.14-28.49-63.62-63.62-63.62s-63.62 28.48-63.62 63.62c0 35.13 28.49 63.62 63.62 63.62s63.62-28.49 63.62-63.62z"/>
    <path d="m2198.7 2133.7c0-35.14-28.49-63.62-63.62-63.62s-63.62 28.48-63.62 63.62c0 35.13 28.49 63.62 63.62 63.62s63.62-28.49 63.62-63.62z"/>
    <path d="m3927.8 1680.2c0-35.13-28.48-63.62-63.62-63.62-35.13 0-63.61 28.49-63.61 63.62s28.48 63.62 63.61 63.62c35.14 0 63.62-28.49 63.62-63.62z"/>
    <path d="m3502.6 1283.3c0-35.13-28.48-63.62-63.62-63.62-35.13 0-63.62 28.49-63.62 63.62 0 35.14 28.49 63.62 63.62 63.62 35.14 0 63.62-28.48 63.62-63.62z"/>
    <path d="m4211.2 1283.3c0-35.13-28.49-63.62-63.62-63.62s-63.62 28.49-63.62 63.62c0 35.14 28.49 63.62 63.62 63.62s63.62-28.48 63.62-63.62z"/>
   </g>
   <path d="m3013.8 1283.3c0-15.65-12.69-28.34-28.34-28.34-15.66 0-28.35 12.69-28.35 28.34 0 15.66 12.69 28.35 28.35 28.35 15.65 0 28.34-12.69 28.34-28.35" fill-rule="evenodd"/>
   <path d="m3013.8 1283.3c0-15.65-12.69-28.34-28.34-28.34-15.66 0-28.35 12.69-28.35 28.34 0 15.66 12.69 28.35 28.35 28.35 15.65 0 28.34-12.69 28.34-28.35z" fill="none" stroke="#000" stroke-miterlimit="10" stroke-width="4.7242"/>
   <path d="m2730.3 1283.3c0-15.65-12.69-28.34-28.34-28.34s-28.35 12.69-28.35 28.34c0 15.66 12.7 28.35 28.35 28.35s28.34-12.69 28.34-28.35" fill-rule="evenodd"/>
   <path d="m2730.3 1283.3c0-15.65-12.69-28.34-28.34-28.34s-28.35 12.69-28.35 28.34c0 15.66 12.7 28.35 28.35 28.35s28.34-12.69 28.34-28.35z" fill="none" stroke="#000" stroke-miterlimit="10" stroke-width="4.7242"/>
   <path d="m2475.2 1283.3c0-15.65-12.69-28.34-28.34-28.34s-28.34 12.69-28.34 28.34c0 15.66 12.69 28.35 28.34 28.35s28.34-12.69 28.34-28.35" fill-rule="evenodd"/>
   <path d="m2475.2 1283.3c0-15.65-12.69-28.34-28.34-28.34s-28.34 12.69-28.34 28.34c0 15.66 12.69 28.35 28.34 28.35s28.34-12.69 28.34-28.35z" fill="none" stroke="#000" stroke-miterlimit="10" stroke-width="4.7242"/>
   <path d="m2248.5 1283.3c0-15.65-12.69-28.34-28.35-28.34-15.65 0-28.34 12.69-28.34 28.34 0 15.66 12.69 28.35 28.34 28.35 15.66 0 28.35-12.69 28.35-28.35" fill-rule="evenodd"/>
   <path d="m2248.5 1283.3c0-15.65-12.69-28.34-28.35-28.34-15.65 0-28.34 12.69-28.34 28.34 0 15.66 12.69 28.35 28.34 28.35 15.66 0 28.35-12.69 28.35-28.35z" fill="none" stroke="#000" stroke-miterlimit="10" stroke-width="4.7242"/>
   <path d="m1993.4 1283.3c0-15.65-12.69-28.34-28.35-28.34-15.65 0-28.34 12.69-28.34 28.34 0 15.66 12.69 28.35 28.34 28.35 15.66 0 28.35-12.69 28.35-28.35" fill-rule="evenodd"/>
   <path d="m1993.4 1283.3c0-15.65-12.69-28.34-28.35-28.34-15.65 0-28.34 12.69-28.34 28.34 0 15.66 12.69 28.35 28.34 28.35 15.66 0 28.35-12.69 28.35-28.35z" fill="none" stroke="#000" stroke-miterlimit="10" stroke-width="4.7242"/>
   <path d="m1738.2 1283.3c0-15.65-12.69-28.34-28.35-28.34-15.65 0-28.34 12.69-28.34 28.34 0 15.66 12.69 28.35 28.34 28.35 15.66 0 28.35-12.69 28.35-28.35" fill-rule="evenodd"/>
   <path d="m1738.2 1283.3c0-15.65-12.69-28.34-28.35-28.34-15.65 0-28.34 12.69-28.34 28.34 0 15.66 12.69 28.35 28.34 28.35 15.66 0 28.35-12.69 28.35-28.35z" fill="none" stroke="#000" stroke-miterlimit="10" stroke-width="4.7242"/>
   <path d="m1483.1 1283.3c0-15.65-12.69-28.34-28.34-28.34-15.66 0-28.35 12.69-28.35 28.34 0 15.66 12.69 28.35 28.35 28.35 15.65 0 28.34-12.69 28.34-28.35" fill-rule="evenodd"/>
   <g fill="none" stroke="#000" stroke-miterlimit="10" stroke-width="4.7242">
    <path d="m1483.1 1283.3c0-15.65-12.69-28.34-28.34-28.34-15.66 0-28.35 12.69-28.35 28.34 0 15.66 12.69 28.35 28.35 28.35 15.65 0 28.34-12.69 28.34-28.35z"/>
    <path d="m3530.9 914.83c0-35.133-28.49-63.621-63.62-63.621-35.14 0-63.62 28.488-63.62 63.621s28.48 63.621 63.62 63.621c35.13 0 63.62-28.488 63.62-63.621z"/>
    <path d="m1086.3 518h3514.8v1360.6h-3514.8z"/>
    <path d="m1086.3 7.7773h3514.8v368.49h-3514.8z"/>
    <path d="m1086.3 1963.6h3514.8v368.49h-3514.8z"/>
   </g>
   <g clip-path="url(#clipPath914)">
    <path d="m3864.2 1736.8-28.34 340.15" fill="none" stroke="#000" stroke-miterlimit="10" stroke-width="4.7242"/>
   </g>
   <path d="m3861.6 1993.2-25.19 73.7-12.6-76.85z" fill-rule="evenodd"/>
   <path d="m3861.6 1993.2-25.19 73.7-12.6-76.85z" fill="none" stroke="#000" stroke-miterlimit="10" stroke-width="4.7242"/>
   <g clip-path="url(#clipPath928)">
    <path d="m3807.5 1680.2-1644 396.84" fill="none" stroke="#000" stroke-miterlimit="10" stroke-width="4.7242"/>
   </g>
   <path d="m2251 2075.1-77.48-0.63 68.66-35.91z" fill-rule="evenodd"/>
   <path d="m2251 2075.1-77.48-0.63 68.66-35.91z" fill="none" stroke="#000" stroke-miterlimit="10" stroke-width="4.7242"/>
   <g clip-path="url(#clipPath942)">
    <path d="m2276.8 1538.4 680.3 566.91" fill="none" stroke="#000" stroke-miterlimit="10" stroke-width="4.7242"/>
   </g>
   <path d="m2903.6 2036 45.99 62.99-70.55-34.01z" fill-rule="evenodd"/>
   <path d="m2903.6 2036 45.99 62.99-70.55-34.01z" fill="none" stroke="#000" stroke-miterlimit="10" stroke-width="4.7242"/>
   <g clip-path="url(#clipPath956)">
    <path d="m3439 1340 368.49 311.8" fill="none" stroke="#000" stroke-miterlimit="10" stroke-width="4.7242"/>
   </g>
   <path d="m3753.9 1581.9 45.98 63.63-69.92-34.65z" fill-rule="evenodd"/>
   <path d="m3753.9 1581.9 45.98 63.63-69.92-34.65z" fill="none" stroke="#000" stroke-miterlimit="10" stroke-width="4.7242"/>
   <g clip-path="url(#clipPath970)">
    <path d="m4119.3 1340-226.76 340.14" fill="none" stroke="#000" stroke-miterlimit="10" stroke-width="4.7242"/>
   </g>
   <path d="m3956.1 1619.1-57.95 52.91 26.46-73.7z" fill-rule="evenodd"/>
   <path d="m3956.1 1619.1-57.95 52.91 26.46-73.7z" fill="none" stroke="#000" stroke-miterlimit="10" stroke-width="4.7242"/>
   <g clip-path="url(#clipPath984)">
    <path d="m3524 914.83 566.91 340.15" fill="none" stroke="#000" stroke-miterlimit="10" stroke-width="4.7242"/>
   </g>
   <path d="m4027.3 1194.5 54.8 55.43-74.33-22.68z" fill-rule="evenodd"/>
   <path d="m4027.3 1194.5 54.8 55.43-74.33-22.68z" fill="none" stroke="#000" stroke-miterlimit="10" stroke-width="4.7242"/>
   <g clip-path="url(#clipPath998)">
    <path d="m1851.6 1623.5-481.88 481.87" fill="none" stroke="#000" stroke-miterlimit="10" stroke-width="4.7242"/>
   </g>
   <path d="m1444.1 2058.1-67.4 40.31 40.31-67.39z" fill-rule="evenodd"/>
   <path d="m1444.1 2058.1-67.4 40.31 40.31-67.39z" fill="none" stroke="#000" stroke-miterlimit="10" stroke-width="4.7242"/>
   <g clip-path="url(#clipPath1012)">
    <path d="m1398.1 1623.5-85.03 453.53" fill="none" stroke="#000" stroke-miterlimit="10" stroke-width="4.7242"/>
   </g>
   <path d="m1347.7 1996.4-32.75 70.55-4.41-77.48z" fill-rule="evenodd"/>
   <path d="m1347.7 1996.4-32.75 70.55-4.41-77.48z" fill="none" stroke="#000" stroke-miterlimit="10" stroke-width="4.7242"/>
   <g clip-path="url(#clipPath1026)">
    <path d="m2815.4 1623.5-1445.6 510.22" fill="none" stroke="#000" stroke-miterlimit="10" stroke-width="4.7242"/>
   </g>
   <path d="m1456.7 2123-77.48 7.56 64.88-43.47z" fill-rule="evenodd"/>
   <path d="m1456.7 2123-77.48 7.56 64.88-43.47z" fill="none" stroke="#000" stroke-miterlimit="10" stroke-width="4.7242"/>
   <g clip-path="url(#clipPath1040)">
    <path d="m3155.5 1651.8 623.6 453.52" fill="none" stroke="#000" stroke-miterlimit="10" stroke-width="4.7242"/>
   </g>
   <path d="m3721.2 2039.8 49.76 59.21-72.44-28.97z" fill-rule="evenodd"/>
   <path d="m3721.2 2039.8 49.76 59.21-72.44-28.97z" fill="none" stroke="#000" stroke-miterlimit="10" stroke-width="4.7242"/>
   <g clip-path="url(#clipPath1054)">
    <path d="m3779.1 234.54-311.8 623.6" fill="none" stroke="#000" stroke-miterlimit="10" stroke-width="4.7242"/>
   </g>
   <path d="m3522.8 790.11-51.02 59.211 17-76.219z" fill-rule="evenodd"/>
   <path d="m3522.8 790.11-51.02 59.211 17-76.219z" fill="none" stroke="#000" stroke-miterlimit="10" stroke-width="4.7242"/>
   <g clip-path="url(#clipPath1068)">
    <path d="m2588.6 234.54 822.02 651.95" fill="none" stroke="#000" stroke-miterlimit="10" stroke-width="4.7242"/>
   </g>
   <path d="m3355.2 818.46 47.24 61.731-70.55-32.125z" fill-rule="evenodd"/>
   <path d="m3355.2 818.46 47.24 61.731-70.55-32.125z" fill="none" stroke="#000" stroke-miterlimit="10" stroke-width="4.7242"/>
   <g clip-path="url(#clipPath1082)">
    <path d="m2872.1 971.52 510.22 283.46" fill="none" stroke="#000" stroke-miterlimit="10" stroke-width="4.7242"/>
   </g>
   <path d="m3316.8 1197 56.69 52.91-75.58-20.16z" fill-rule="evenodd"/>
   <path d="m3316.8 1197 56.69 52.91-75.58-20.16z" fill="none" stroke="#000" stroke-miterlimit="10" stroke-width="4.7242"/>
   <g clip-path="url(#clipPath1096)">
    <path d="m4317.7 914.83-141.73 340.15" fill="none" stroke="#000" stroke-miterlimit="10" stroke-width="4.7242"/>
   </g>
   <path d="m4226.4 1183.2-46.62 62.36 11.97-76.85z" fill-rule="evenodd"/>
   <path d="m4226.4 1183.2-46.62 62.36 11.97-76.85z" fill="none" stroke="#000" stroke-miterlimit="10" stroke-width="4.7242"/>
   <g clip-path="url(#clipPath1110)">
    <path d="m3835.8 886.49-340.15 368.49" fill="none" stroke="#000" stroke-miterlimit="10" stroke-width="4.7242"/>
   </g>
   <path d="m3567.5 1204.6-64.88 42.83 37.16-68.03z" fill-rule="evenodd"/>
   <path d="m3567.5 1204.6-64.88 42.83 37.16-68.03z" fill="none" stroke="#000" stroke-miterlimit="10" stroke-width="4.7242"/>
   <g transform="scale(10)">
    <text transform="matrix(1 0 0 -1 .91641 207.7)" fill="#000000" font-family="'Times New Roman'" font-size="17.999px" xml:space="preserve"><tspan x="0 8.9996996 17.999399 23.003233 32.002934 41.002632 46.006466 50.506317 55.510151 63.501884 72.501587 80.493317" y="0">output layer</tspan><tspan x="0 8.9996996 14.003533 23.003233 32.002934 39.994667 48.994366 53.494217 58.498051 66.489784 75.489487 83.481216 89.475014" y="76.532799">hidden layers</tspan><tspan x="0 5.0038333 14.003533 23.003233 32.002934 37.006767 41.506615 46.510448 54.502182 63.501884 71.493614" y="192.74879">input layer</tspan><tspan x="476.20499 481.20883 489.20056 498.20026 506.19199 512.18579 516.68567" y="87.870796">layer l</tspan><tspan x="473.37024 478.37405 486.36578 495.36551 503.35724 509.35104 513.85089 518.85474 529.00635" y="121.8853">layer l−1</tspan><tspan x="385.49911 398.49469 403.49854 408.50235" y="110.547">wlij</tspan><tspan x="428.01752" y="79.366898">i</tspan><tspan x="362.82303" y="127.5544">j</tspan></text>
   </g>
  </g>
 </g>
</svg>
