<?xml version="1.0" encoding="UTF-8"?>
<svg xmlns="http://www.w3.org/2000/svg" xmlns:xlink="http://www.w3.org/1999/xlink" width="425pt" height="118.099pt" viewBox="0 0 425 118.099" version="1.2">
<g id="surface1">
<path style="fill:none;stroke-width:1.333333;stroke-linecap:butt;stroke-linejoin:miter;stroke:rgb(0%,0%,0%);stroke-opacity:1;stroke-miterlimit:10;" d="M 1599.415625 5885.839583 L 1599.415625 4862.228472 " transform="matrix(0.09,0,0,-0.09,-112.756,545.499)"/>
<path style="fill-rule:evenodd;fill:rgb(0%,0%,0%);fill-opacity:1;stroke-width:1.333333;stroke-linecap:butt;stroke-linejoin:miter;stroke:rgb(0%,0%,0%);stroke-opacity:1;stroke-miterlimit:10;" d="M 1619.380903 4942.176389 L 1599.415625 4862.228472 L 1579.406944 4942.176389 " transform="matrix(0.09,0,0,-0.09,-112.756,545.499)"/>
<path style="fill:none;stroke-width:1.333333;stroke-linecap:butt;stroke-linejoin:miter;stroke:rgb(0%,0%,0%);stroke-opacity:1;stroke-miterlimit:10;" d="M 1599.415625 5885.839583 L 2495.075347 5885.839583 " transform="matrix(0.09,0,0,-0.09,-112.756,545.499)"/>
<path style="fill-rule:evenodd;fill:rgb(0%,0%,0%);fill-opacity:1;stroke-width:1.333333;stroke-linecap:butt;stroke-linejoin:miter;stroke:rgb(0%,0%,0%);stroke-opacity:1;stroke-miterlimit:10;" d="M 2415.127431 5905.804861 L 2495.075347 5885.839583 L 2415.127431 5865.830903 " transform="matrix(0.09,0,0,-0.09,-112.756,545.499)"/>
<path style="fill:none;stroke-width:1.333333;stroke-linecap:butt;stroke-linejoin:miter;stroke:rgb(0%,0%,0%);stroke-opacity:1;stroke-miterlimit:10;" d="M 1791.342708 5949.815278 L 1791.342708 5821.863889 " transform="matrix(0.09,0,0,-0.09,-112.756,545.499)"/>
<path style="fill:none;stroke-width:1.333333;stroke-linecap:butt;stroke-linejoin:miter;stroke:rgb(0%,0%,0%);stroke-opacity:1;stroke-miterlimit:10;" d="M 2239.172569 5949.815278 L 2239.172569 5821.863889 " transform="matrix(0.09,0,0,-0.09,-112.756,545.499)"/>
<path style="fill:none;stroke-width:1.333333;stroke-linecap:butt;stroke-linejoin:miter;stroke:rgb(0%,0%,0%);stroke-opacity:1;stroke-miterlimit:10;" d="M 1535.439931 5629.936806 L 1663.391319 5629.936806 " transform="matrix(0.09,0,0,-0.09,-112.756,545.499)"/>
<path style="fill:none;stroke-width:1.333333;stroke-linecap:butt;stroke-linejoin:miter;stroke:rgb(0%,0%,0%);stroke-opacity:1;stroke-miterlimit:10;" d="M 1535.439931 5118.13125 L 1663.391319 5118.13125 " transform="matrix(0.09,0,0,-0.09,-112.756,545.499)"/>
<path style="fill:none;stroke-width:1.333333;stroke-linecap:butt;stroke-linejoin:miter;stroke:rgb(0%,0%,0%);stroke-opacity:1;stroke-miterlimit:10;" d="M 1791.342708 5118.13125 L 2239.172569 5118.13125 L 2239.172569 5629.936806 L 1791.342708 5629.936806 Z M 1791.342708 5118.13125 " transform="matrix(0.09,0,0,-0.09,-112.756,545.499)"/>
<path style="fill:none;stroke-width:1.333333;stroke-linecap:butt;stroke-linejoin:miter;stroke:rgb(0%,0%,0%);stroke-opacity:1;stroke-miterlimit:10;" d="M 2687.002431 5885.839583 L 2687.002431 4862.228472 " transform="matrix(0.09,0,0,-0.09,-112.756,545.499)"/>
<path style="fill-rule:evenodd;fill:rgb(0%,0%,0%);fill-opacity:1;stroke-width:1.333333;stroke-linecap:butt;stroke-linejoin:miter;stroke:rgb(0%,0%,0%);stroke-opacity:1;stroke-miterlimit:10;" d="M 2707.011111 4942.176389 L 2687.002431 4862.228472 L 2667.037153 4942.176389 " transform="matrix(0.09,0,0,-0.09,-112.756,545.499)"/>
<path style="fill:none;stroke-width:1.333333;stroke-linecap:butt;stroke-linejoin:miter;stroke:rgb(0%,0%,0%);stroke-opacity:1;stroke-miterlimit:10;" d="M 2687.002431 5885.839583 L 3582.662153 5885.839583 " transform="matrix(0.09,0,0,-0.09,-112.756,545.499)"/>
<path style="fill-rule:evenodd;fill:rgb(0%,0%,0%);fill-opacity:1;stroke-width:1.333333;stroke-linecap:butt;stroke-linejoin:miter;stroke:rgb(0%,0%,0%);stroke-opacity:1;stroke-miterlimit:10;" d="M 3502.714236 5905.804861 L 3582.662153 5885.839583 L 3502.714236 5865.830903 " transform="matrix(0.09,0,0,-0.09,-112.756,545.499)"/>
<path style="fill:none;stroke-width:1.333333;stroke-linecap:butt;stroke-linejoin:miter;stroke:rgb(0%,0%,0%);stroke-opacity:1;stroke-miterlimit:10;" d="M 2623.026736 5629.936806 L 2750.978125 5629.936806 " transform="matrix(0.09,0,0,-0.09,-112.756,545.499)"/>
<path style="fill:none;stroke-width:1.333333;stroke-linecap:butt;stroke-linejoin:miter;stroke:rgb(0%,0%,0%);stroke-opacity:1;stroke-miterlimit:10;" d="M 2623.026736 5118.13125 L 2750.978125 5118.13125 " transform="matrix(0.09,0,0,-0.09,-112.756,545.499)"/>
<path style="fill-rule:evenodd;fill:rgb(0%,0%,0%);fill-opacity:1;stroke-width:1.333333;stroke-linecap:butt;stroke-linejoin:miter;stroke:rgb(0%,0%,0%);stroke-opacity:1;stroke-miterlimit:10;" d="M 2854.971181 5861.837847 L 2902.93125 5861.837847 L 2902.93125 5909.841319 L 2854.971181 5909.841319 Z M 2854.971181 5861.837847 " transform="matrix(0.09,0,0,-0.09,-112.756,545.499)"/>
<path style="fill-rule:evenodd;fill:rgb(0%,0%,0%);fill-opacity:1;stroke-width:1.333333;stroke-linecap:butt;stroke-linejoin:miter;stroke:rgb(0%,0%,0%);stroke-opacity:1;stroke-miterlimit:10;" d="M 2982.879167 5861.837847 L 3030.882639 5861.837847 L 3030.882639 5909.841319 L 2982.879167 5909.841319 Z M 2982.879167 5861.837847 " transform="matrix(0.09,0,0,-0.09,-112.756,545.499)"/>
<path style="fill-rule:evenodd;fill:rgb(0%,0%,0%);fill-opacity:1;stroke-width:1.333333;stroke-linecap:butt;stroke-linejoin:miter;stroke:rgb(0%,0%,0%);stroke-opacity:1;stroke-miterlimit:10;" d="M 3174.849653 5861.837847 L 3222.809722 5861.837847 L 3222.809722 5909.841319 L 3174.849653 5909.841319 Z M 3174.849653 5861.837847 " transform="matrix(0.09,0,0,-0.09,-112.756,545.499)"/>
<path style="fill:none;stroke-width:1.333333;stroke-linecap:butt;stroke-linejoin:miter;stroke:rgb(0%,0%,0%);stroke-opacity:1;stroke-miterlimit:10;" d="M 2878.929514 5629.936806 L 2878.929514 5118.13125 " transform="matrix(0.09,0,0,-0.09,-112.756,545.499)"/>
<path style="fill:none;stroke-width:1.333333;stroke-linecap:butt;stroke-linejoin:miter;stroke:rgb(0%,0%,0%);stroke-opacity:1;stroke-miterlimit:10;" d="M 3006.880903 5629.936806 L 3006.880903 5118.13125 " transform="matrix(0.09,0,0,-0.09,-112.756,545.499)"/>
<path style="fill:none;stroke-width:1.333333;stroke-linecap:butt;stroke-linejoin:miter;stroke:rgb(0%,0%,0%);stroke-opacity:1;stroke-miterlimit:10;" d="M 3198.807986 5629.936806 L 3198.807986 5118.13125 " transform="matrix(0.09,0,0,-0.09,-112.756,545.499)"/>
<path style="fill:none;stroke-width:1.333333;stroke-linecap:butt;stroke-linejoin:miter;stroke:rgb(0%,0%,0%);stroke-opacity:1;stroke-miterlimit:10;" d="M 4862.219444 5885.839583 L 4862.219444 4862.228472 " transform="matrix(0.09,0,0,-0.09,-112.756,545.499)"/>
<path style="fill-rule:evenodd;fill:rgb(0%,0%,0%);fill-opacity:1;stroke-width:1.333333;stroke-linecap:butt;stroke-linejoin:miter;stroke:rgb(0%,0%,0%);stroke-opacity:1;stroke-miterlimit:10;" d="M 4882.184722 4942.176389 L 4862.219444 4862.228472 L 4842.210764 4942.176389 " transform="matrix(0.09,0,0,-0.09,-112.756,545.499)"/>
<path style="fill:none;stroke-width:1.333333;stroke-linecap:butt;stroke-linejoin:miter;stroke:rgb(0%,0%,0%);stroke-opacity:1;stroke-miterlimit:10;" d="M 4862.219444 5885.839583 L 5757.879167 5885.839583 " transform="matrix(0.09,0,0,-0.09,-112.756,545.499)"/>
<path style="fill-rule:evenodd;fill:rgb(0%,0%,0%);fill-opacity:1;stroke-width:1.333333;stroke-linecap:butt;stroke-linejoin:miter;stroke:rgb(0%,0%,0%);stroke-opacity:1;stroke-miterlimit:10;" d="M 5677.93125 5905.804861 L 5757.879167 5885.839583 L 5677.93125 5865.830903 " transform="matrix(0.09,0,0,-0.09,-112.756,545.499)"/>
<path style="fill-rule:evenodd;fill:rgb(0%,0%,0%);fill-opacity:1;stroke-width:1.333333;stroke-linecap:butt;stroke-linejoin:miter;stroke:rgb(0%,0%,0%);stroke-opacity:1;stroke-miterlimit:10;" d="M 5030.144792 5350.032292 L 5078.104861 5350.032292 L 5078.104861 5397.992361 L 5030.144792 5397.992361 Z M 5030.144792 5350.032292 " transform="matrix(0.09,0,0,-0.09,-112.756,545.499)"/>
<path style="fill-rule:evenodd;fill:rgb(0%,0%,0%);fill-opacity:1;stroke-width:1.333333;stroke-linecap:butt;stroke-linejoin:miter;stroke:rgb(0%,0%,0%);stroke-opacity:1;stroke-miterlimit:10;" d="M 5094.120486 5541.959375 L 5142.123958 5541.959375 L 5142.123958 5589.919444 L 5094.120486 5589.919444 Z M 5094.120486 5541.959375 " transform="matrix(0.09,0,0,-0.09,-112.756,545.499)"/>
<path style="fill-rule:evenodd;fill:rgb(0%,0%,0%);fill-opacity:1;stroke-width:1.333333;stroke-linecap:butt;stroke-linejoin:miter;stroke:rgb(0%,0%,0%);stroke-opacity:1;stroke-miterlimit:10;" d="M 5222.071875 5222.080903 L 5270.031944 5222.080903 L 5270.031944 5270.040972 L 5222.071875 5270.040972 Z M 5222.071875 5222.080903 " transform="matrix(0.09,0,0,-0.09,-112.756,545.499)"/>
<path style="fill-rule:evenodd;fill:rgb(0%,0%,0%);fill-opacity:1;stroke-width:1.333333;stroke-linecap:butt;stroke-linejoin:miter;stroke:rgb(0%,0%,0%);stroke-opacity:1;stroke-miterlimit:10;" d="M 5286.047569 5477.983681 L 5334.051042 5477.983681 L 5334.051042 5525.94375 L 5286.047569 5525.94375 Z M 5286.047569 5477.983681 " transform="matrix(0.09,0,0,-0.09,-112.756,545.499)"/>
<path style="fill-rule:evenodd;fill:rgb(0%,0%,0%);fill-opacity:1;stroke-width:1.333333;stroke-linecap:butt;stroke-linejoin:miter;stroke:rgb(0%,0%,0%);stroke-opacity:1;stroke-miterlimit:10;" d="M 5477.974653 5669.910764 L 5525.978125 5669.910764 L 5525.978125 5717.870833 L 5477.974653 5717.870833 Z M 5477.974653 5669.910764 " transform="matrix(0.09,0,0,-0.09,-112.756,545.499)"/>
<path style="fill:none;stroke-width:1.333333;stroke-linecap:butt;stroke-linejoin:miter;stroke:rgb(0%,0%,0%);stroke-opacity:1;stroke-miterlimit:10;" d="M 3774.589236 5885.839583 L 3774.589236 4862.228472 " transform="matrix(0.09,0,0,-0.09,-112.756,545.499)"/>
<path style="fill-rule:evenodd;fill:rgb(0%,0%,0%);fill-opacity:1;stroke-width:1.333333;stroke-linecap:butt;stroke-linejoin:miter;stroke:rgb(0%,0%,0%);stroke-opacity:1;stroke-miterlimit:10;" d="M 3794.597917 4942.176389 L 3774.589236 4862.228472 L 3754.623958 4942.176389 " transform="matrix(0.09,0,0,-0.09,-112.756,545.499)"/>
<path style="fill:none;stroke-width:1.333333;stroke-linecap:butt;stroke-linejoin:miter;stroke:rgb(0%,0%,0%);stroke-opacity:1;stroke-miterlimit:10;" d="M 3774.589236 5885.839583 L 4670.292361 5885.839583 " transform="matrix(0.09,0,0,-0.09,-112.756,545.499)"/>
<path style="fill-rule:evenodd;fill:rgb(0%,0%,0%);fill-opacity:1;stroke-width:1.333333;stroke-linecap:butt;stroke-linejoin:miter;stroke:rgb(0%,0%,0%);stroke-opacity:1;stroke-miterlimit:10;" d="M 4590.301042 5905.804861 L 4670.292361 5885.839583 L 4590.301042 5865.830903 " transform="matrix(0.09,0,0,-0.09,-112.756,545.499)"/>
<path style="fill-rule:evenodd;fill:rgb(0%,0%,0%);fill-opacity:1;stroke-width:1.333333;stroke-linecap:butt;stroke-linejoin:miter;stroke:rgb(0%,0%,0%);stroke-opacity:1;stroke-miterlimit:10;" d="M 3942.557986 5861.837847 L 3990.518056 5861.837847 L 3990.518056 5909.841319 L 3942.557986 5909.841319 Z M 3942.557986 5861.837847 " transform="matrix(0.09,0,0,-0.09,-112.756,545.499)"/>
<path style="fill-rule:evenodd;fill:rgb(0%,0%,0%);fill-opacity:1;stroke-width:1.333333;stroke-linecap:butt;stroke-linejoin:miter;stroke:rgb(0%,0%,0%);stroke-opacity:1;stroke-miterlimit:10;" d="M 4070.509375 5861.837847 L 4118.469444 5861.837847 L 4118.469444 5909.841319 L 4070.509375 5909.841319 Z M 4070.509375 5861.837847 " transform="matrix(0.09,0,0,-0.09,-112.756,545.499)"/>
<path style="fill-rule:evenodd;fill:rgb(0%,0%,0%);fill-opacity:1;stroke-width:1.333333;stroke-linecap:butt;stroke-linejoin:miter;stroke:rgb(0%,0%,0%);stroke-opacity:1;stroke-miterlimit:10;" d="M 4262.436458 5861.837847 L 4310.396528 5861.837847 L 4310.396528 5909.841319 L 4262.436458 5909.841319 Z M 4262.436458 5861.837847 " transform="matrix(0.09,0,0,-0.09,-112.756,545.499)"/>
<path style="fill-rule:evenodd;fill:rgb(0%,0%,0%);fill-opacity:1;stroke-width:1.333333;stroke-linecap:butt;stroke-linejoin:miter;stroke:rgb(0%,0%,0%);stroke-opacity:1;stroke-miterlimit:10;" d="M 3750.630903 5541.959375 L 3798.590972 5541.959375 L 3798.590972 5589.919444 L 3750.630903 5589.919444 Z M 3750.630903 5541.959375 " transform="matrix(0.09,0,0,-0.09,-112.756,545.499)"/>
<path style="fill-rule:evenodd;fill:rgb(0%,0%,0%);fill-opacity:1;stroke-width:1.333333;stroke-linecap:butt;stroke-linejoin:miter;stroke:rgb(0%,0%,0%);stroke-opacity:1;stroke-miterlimit:10;" d="M 3750.630903 5286.056597 L 3798.590972 5286.056597 L 3798.590972 5334.016667 L 3750.630903 5334.016667 Z M 3750.630903 5286.056597 " transform="matrix(0.09,0,0,-0.09,-112.756,545.499)"/>
<path style="fill-rule:evenodd;fill:rgb(0%,0%,0%);fill-opacity:1;stroke-width:1.333333;stroke-linecap:butt;stroke-linejoin:miter;stroke:rgb(0%,0%,0%);stroke-opacity:1;stroke-miterlimit:10;" d="M 3750.630903 5158.105208 L 3798.590972 5158.105208 L 3798.590972 5206.065278 L 3750.630903 5206.065278 Z M 3750.630903 5158.105208 " transform="matrix(0.09,0,0,-0.09,-112.756,545.499)"/>
<path style="fill-rule:evenodd;fill:rgb(0%,0%,0%);fill-opacity:1;stroke-width:1.333333;stroke-linecap:butt;stroke-linejoin:miter;stroke:rgb(0%,0%,0%);stroke-opacity:1;stroke-miterlimit:10;" d="M 3942.557986 5541.959375 L 3990.518056 5541.959375 L 3990.518056 5589.919444 L 3942.557986 5589.919444 Z M 3942.557986 5541.959375 " transform="matrix(0.09,0,0,-0.09,-112.756,545.499)"/>
<path style="fill-rule:evenodd;fill:rgb(0%,0%,0%);fill-opacity:1;stroke-width:1.333333;stroke-linecap:butt;stroke-linejoin:miter;stroke:rgb(0%,0%,0%);stroke-opacity:1;stroke-miterlimit:10;" d="M 4070.509375 5541.959375 L 4118.469444 5541.959375 L 4118.469444 5589.919444 L 4070.509375 5589.919444 Z M 4070.509375 5541.959375 " transform="matrix(0.09,0,0,-0.09,-112.756,545.499)"/>
<path style="fill-rule:evenodd;fill:rgb(0%,0%,0%);fill-opacity:1;stroke-width:1.333333;stroke-linecap:butt;stroke-linejoin:miter;stroke:rgb(0%,0%,0%);stroke-opacity:1;stroke-miterlimit:10;" d="M 4262.436458 5541.959375 L 4310.396528 5541.959375 L 4310.396528 5589.919444 L 4262.436458 5589.919444 Z M 4262.436458 5541.959375 " transform="matrix(0.09,0,0,-0.09,-112.756,545.499)"/>
<path style="fill-rule:evenodd;fill:rgb(0%,0%,0%);fill-opacity:1;stroke-width:1.333333;stroke-linecap:butt;stroke-linejoin:miter;stroke:rgb(0%,0%,0%);stroke-opacity:1;stroke-miterlimit:10;" d="M 3942.557986 5286.056597 L 3990.518056 5286.056597 L 3990.518056 5334.016667 L 3942.557986 5334.016667 Z M 3942.557986 5286.056597 " transform="matrix(0.09,0,0,-0.09,-112.756,545.499)"/>
<path style="fill-rule:evenodd;fill:rgb(0%,0%,0%);fill-opacity:1;stroke-width:1.333333;stroke-linecap:butt;stroke-linejoin:miter;stroke:rgb(0%,0%,0%);stroke-opacity:1;stroke-miterlimit:10;" d="M 4070.509375 5286.056597 L 4118.469444 5286.056597 L 4118.469444 5334.016667 L 4070.509375 5334.016667 Z M 4070.509375 5286.056597 " transform="matrix(0.09,0,0,-0.09,-112.756,545.499)"/>
<path style="fill-rule:evenodd;fill:rgb(0%,0%,0%);fill-opacity:1;stroke-width:1.333333;stroke-linecap:butt;stroke-linejoin:miter;stroke:rgb(0%,0%,0%);stroke-opacity:1;stroke-miterlimit:10;" d="M 4262.436458 5286.056597 L 4310.396528 5286.056597 L 4310.396528 5334.016667 L 4262.436458 5334.016667 Z M 4262.436458 5286.056597 " transform="matrix(0.09,0,0,-0.09,-112.756,545.499)"/>
<path style="fill-rule:evenodd;fill:rgb(0%,0%,0%);fill-opacity:1;stroke-width:1.333333;stroke-linecap:butt;stroke-linejoin:miter;stroke:rgb(0%,0%,0%);stroke-opacity:1;stroke-miterlimit:10;" d="M 3942.557986 5158.105208 L 3990.518056 5158.105208 L 3990.518056 5206.065278 L 3942.557986 5206.065278 Z M 3942.557986 5158.105208 " transform="matrix(0.09,0,0,-0.09,-112.756,545.499)"/>
<path style="fill-rule:evenodd;fill:rgb(0%,0%,0%);fill-opacity:1;stroke-width:1.333333;stroke-linecap:butt;stroke-linejoin:miter;stroke:rgb(0%,0%,0%);stroke-opacity:1;stroke-miterlimit:10;" d="M 4070.509375 5158.105208 L 4118.469444 5158.105208 L 4118.469444 5206.065278 L 4070.509375 5206.065278 Z M 4070.509375 5158.105208 " transform="matrix(0.09,0,0,-0.09,-112.756,545.499)"/>
<path style="fill-rule:evenodd;fill:rgb(0%,0%,0%);fill-opacity:1;stroke-width:1.333333;stroke-linecap:butt;stroke-linejoin:miter;stroke:rgb(0%,0%,0%);stroke-opacity:1;stroke-miterlimit:10;" d="M 4262.436458 5158.105208 L 4310.396528 5158.105208 L 4310.396528 5206.065278 L 4262.436458 5206.065278 Z M 4262.436458 5158.105208 " transform="matrix(0.09,0,0,-0.09,-112.756,545.499)"/>
</g>
</svg>
